{"title":"MYLENE FARMER-22.01.2011-TF1-NRJ Music Awards( Oui mais non)","uid":6121220,"size":182019110,"categoryP":"audio","categoryS":"music","magnet":"?xt=urn:btih:5a2982721d2bd7e6176082a1d27b29c020d229bb&amp;dn=MYLENE+FARMER-22.01.2011-TF1-NRJ+Music+Awards%28+Oui+mais+non%29&amp;tr=udp%3A%2F%2Ftracker.openbittorrent.com%3A80&amp;tr=udp%3A%2F%2Fopen.demonii.com%3A1337&amp;tr=udp%3A%2F%2Ftracker.coppersurfer.tk%3A6969&amp;tr=udp%3A%2F%2Fexodus.desync.com%3A6969","seeders":0,"leechers":1,"uploader":null,"files":-1,"time":1295749693,"description":"\nFormat                           : AVI\nFormat/Info                      : Audio Video Interleave\nFile size                        : 174 MiB\nDuration                         : 5mn 44s\nOverall bit rate                 : 4 227 Kbps\nWriting library                  : TMPGEnc 4.0 XPress Version. 4.7.4.299\n\nVideo\nID                               : 0\nFormat                           : MPEG-4 Visual\nFormat profile                   : Advanced Simple@L5\nFormat settings, BVOP            : Yes\nFormat settings, QPel            : No\nFormat settings, GMC             : No warppoints\nFormat settings, Matrix          : Default (H.263)\nMuxing mode                      : Packed bitstream\nCodec ID                         : XVID\nCodec ID/Hint                    : XviD\nDuration                         : 5mn 44s\nBit rate                         : 2 675 Kbps\nWidth                            : 640 pixels\nHeight                           : 480 pixels\nDisplay aspect ratio             : 4:3\nFrame rate                       : 29.970 fps\nColor space                      : YUV\nChroma subsampling               : 4:2:0\nBit depth                        : 8 bits\nScan type                        : Progressive\nCompression mode                 : Lossy\nBits/(Pixel*Frame)               : 0.291\nStream size                      : 110 MiB (63%)\nWriting library                  : XviD 58\n\nAudio\nID                               : 1\nFormat                           : PCM\nFormat settings, Endianness      : Little\nFormat settings, Sign            : Signed\nCodec ID                         : 1\nCodec ID/Hint                    : Microsoft\nDuration                         : 5mn 44s\nBit rate mode                    : Constant\nBit rate                         : 1 536 Kbps\nChannel(s)                       : 2 channels\nSampling rate                    : 48.0 KHz\nBit depth                        : 16 bits\nStream size                      : 63.1 MiB (36%)\nInterleave, duration             : 33 ms (1.00 video frame)\nInterleave, preload duration     : 500 ms\n\n","torrent":{"xt":"urn:btih:5a2982721d2bd7e6176082a1d27b29c020d229bb","amp;dn":"MYLENE+FARMER-22.01.2011-TF1-NRJ+Music+Awards%28+Oui+mais+non%29","amp;tr":["udp%3A%2F%2Ftracker.openbittorrent.com%3A80","udp%3A%2F%2Fopen.demonii.com%3A1337","udp%3A%2F%2Ftracker.coppersurfer.tk%3A6969","udp%3A%2F%2Fexodus.desync.com%3A6969"],"infoHash":"5a2982721d2bd7e6176082a1d27b29c020d229bb","infoHashBuffer":{"type":"Buffer","data":[90,41,130,114,29,43,215,230,23,96,130,161,210,123,41,192,32,210,41,187]},"announce":[],"urlList":[]}}